<svg xmlns="http://www.w3.org/2000/svg" viewBox="0 12 183.9518280029297 47.79999923706055" data-asc="0.92"><g fill="#ff0000"><g fill="#ff0000" transform="translate(0, 0)"><path d="M9.10 46.65Q6.65 46.65 4.58 45.92Q2.50 45.20 1.25 43.90Q0 42.60 0 40.85Q0 39.70 0.55 38.83Q1.10 37.95 2.05 37.95Q2.65 37.95 3.30 38.40Q4.55 39.50 6.53 40.33Q8.50 41.15 10.75 41.15Q13.70 41.15 15.58 39.98Q17.45 38.80 17.45 36.80Q17.45 34.90 15.70 34.05Q13.95 33.20 10.85 32.45Q8.55 31.90 6.42 31.05Q4.30 30.20 2.92 28.68Q1.55 27.15 1.55 24.60Q1.55 22.65 2.40 20.72Q3.25 18.80 4.90 17.20Q6.55 15.60 8.90 14.63Q11.25 13.65 14.20 13.65Q16.40 13.65 18.23 14.15Q20.05 14.65 21.13 15.55Q22.20 16.45 22.20 17.75Q22.20 18.75 21.65 19.50Q21.10 20.25 20.35 20.67Q19.60 21.10 19.05 21.10Q18.55 21.10 17.70 20.65Q16.30 19.90 14.58 19.47Q12.85 19.05 11.55 19.05Q9.10 19.05 7.58 20.13Q6.05 21.20 6.05 22.65Q6.05 24.25 7.98 25.32Q9.90 26.40 14.90 27.60Q18.30 28.50 20.20 30.07Q22.10 31.65 22.10 35.05Q22.10 38.10 20.48 40.75Q18.85 43.40 15.93 45.02Q13.00 46.65 9.10 46.65ZM40.35 59.80Q38.95 59.80 38.13 59Q37.30 58.20 37.25 56Q37.20 53.70 37.93 49.98Q38.65 46.25 39.50 42.25Q38.10 44.25 36.33 45.45Q34.55 46.65 32.15 46.65Q29.15 46.65 27.43 44.60Q25.70 42.55 25.70 38.85Q25.70 36.40 26.45 34.05Q27.20 31.70 28.70 29.77Q30.20 27.85 32.45 26.70Q34.70 25.55 37.65 25.55Q39.50 25.55 41.08 26.05Q42.65 26.55 43.65 27.40Q44.50 28.10 44.70 28.70Q44.90 29.30 44.90 30Q44.90 31.45 44.63 33.55Q44.35 35.65 43.95 37.70Q43.55 39.75 43.25 41.20Q42.80 43.55 42.53 46.17Q42.25 48.80 42.25 51Q42.25 52.60 42.55 53.67Q42.85 54.75 44.05 55.40Q44.35 55.55 44.58 55.73Q44.80 55.90 44.80 56.25Q44.80 56.65 44.40 57.52Q44 58.40 43.05 59.10Q42.10 59.80 40.35 59.80M33.70 41.30Q35.10 41.30 36.50 40.42Q37.90 39.55 39 38Q39.75 36.85 40.30 35.40Q40.85 33.95 40.95 32.25Q40.15 31.85 38.78 31.42Q37.40 31 35.80 31Q32.85 31 31.23 32.63Q29.60 34.25 29.60 36.60Q29.60 38.70 30.80 40Q32 41.30 33.70 41.30ZM55.40 46.65Q52.90 46.65 51.52 45.20Q50.15 43.75 50.15 41Q50.15 39.05 50.70 37Q50.95 36.15 51.10 35.30Q51.25 34.45 51.25 33.60Q51.25 31.40 49.90 30.75Q48.60 30.05 48.60 29.25Q48.60 28.45 49.27 27.65Q49.95 26.85 50.95 26.32Q51.95 25.80 52.95 25.80Q55.80 25.80 55.80 30.45Q55.80 31.95 55.58 33.23Q55.35 34.50 55.05 35.65Q54.85 36.45 54.73 37.25Q54.60 38.05 54.60 38.65Q54.60 41.15 57.05 41.15Q59.35 41.15 61.35 38.70Q63.35 36.25 64.65 31.85L64.60 30.90Q64.50 28.40 65.47 27.10Q66.45 25.80 68.35 25.80Q70 25.80 70 26.85Q70 27.20 69.88 27.75Q69.75 28.30 69.50 29.05Q69 30.90 68.65 32.98Q68.30 35.05 68.30 36.80Q68.30 38.75 68.90 40.02Q69.50 41.30 71.15 41.75Q71.60 41.80 71.88 42.02Q72.15 42.25 72.15 42.95Q72.15 44.15 71.15 45.30Q70.15 46.45 68.25 46.45Q64.60 46.45 64.60 41.30Q64.60 40.40 64.75 38.60L64.65 38.55Q61.50 46.65 55.40 46.65ZM81.20 46.65Q78.20 46.65 76.38 44.77Q74.55 42.90 74.55 39.40Q74.55 36.90 75.52 34.42Q76.50 31.95 78.35 29.95Q80.20 27.95 82.80 26.75Q85.40 25.55 88.65 25.55Q91.65 25.55 93.77 26.57Q95.90 27.60 95.90 29.35Q95.90 29.80 95.80 30.52Q95.70 31.25 95.55 31.70Q95.40 32.10 95.13 32.42Q94.85 32.75 94.40 32.75Q94.20 32.75 93.65 32.60Q93.45 33.65 93.35 34.65Q93.25 35.65 93.25 36.65Q93.25 38.55 93.82 40.02Q94.40 41.50 96.10 41.85Q96.55 41.95 96.82 42.15Q97.10 42.35 97.10 43Q97.10 43.55 96.82 44.40Q96.55 45.25 95.77 45.92Q95 46.60 93.55 46.60Q91.60 46.60 90.55 45.17Q89.50 43.75 89.50 41.10Q88.15 43.55 86.07 45.10Q84 46.65 81.20 46.65M82.80 41.45Q84.80 41.45 86.32 40.20Q87.85 38.95 88.70 37.05Q89.25 35.85 89.55 34.42Q89.85 33 89.95 31.60Q89.10 31.20 88 30.95Q86.90 30.70 85.70 30.70Q82.65 30.70 80.67 32.50Q78.70 34.30 78.70 37Q78.70 39 79.80 40.23Q80.90 41.45 82.80 41.45ZM106.45 46.65Q103.45 46.65 101.72 44.65Q100 42.65 100 39.20Q100 36.65 100.83 34.20Q101.65 31.75 103.15 29.80Q104.65 27.85 106.65 26.70Q108.65 25.55 111 25.55Q112.50 25.55 113.67 26Q114.85 26.45 115.75 27.15Q115.70 23.75 115.40 21.05Q115.10 18.35 113.95 16.05Q113.75 15.65 113.63 15.32Q113.50 15 113.50 14.70Q113.50 14 114.08 13.40Q114.65 12.80 115.50 12.40Q116.35 12 117.10 12Q118.45 12 119.13 13.17Q119.80 14.35 120 16.38Q120.20 18.40 120.20 21Q120.20 24.80 119.85 27.85Q119.50 30.90 119.20 33.20Q119 34.70 118.85 35.80Q118.70 36.90 118.70 37.60Q118.70 41.15 121.75 41.80Q122.55 41.95 122.55 42.85Q122.55 43.40 122.22 44.25Q121.90 45.10 121.05 45.77Q120.20 46.45 118.60 46.45Q116.45 46.45 115.70 45Q114.95 43.55 114.95 40.60Q113.55 43.15 111.40 44.90Q109.25 46.65 106.45 46.65M108 41.30Q109.40 41.30 110.80 40.40Q112.20 39.50 113.30 37.95Q113.95 37 114.47 35.77Q115 34.55 115.45 33.30Q112.90 31 109.80 31Q107.10 31 105.50 32.63Q103.90 34.25 103.90 36.65Q103.90 38.70 105.10 40Q106.30 41.30 108 41.30ZM148.20 46.65Q145.05 46.65 143.13 45.50Q141.20 44.35 140.35 42.52Q139.50 40.70 139.50 38.65Q139.50 36.40 140.35 34.67Q141.20 32.95 142.47 31.73Q143.75 30.50 145.05 29.75Q143.60 28.95 142.55 27.38Q141.50 25.80 141.50 23.50Q141.50 22.40 141.72 21.60Q141.95 20.80 142.30 20.20Q142.20 20.25 142.03 20.30Q141.85 20.35 141.70 20.35Q141.20 20.35 140.97 19.57Q140.75 18.80 140.75 18.20Q140.75 17.25 141.20 16.67Q141.65 16.10 142.10 15.75Q143.10 15.05 145.28 14.10Q147.45 13.15 150.40 13.15Q154.40 13.15 156.78 15.25Q159.15 17.35 159.15 20.80Q159.15 23.50 157.83 25.67Q156.50 27.85 154.45 29.20Q156.35 30.15 157.85 32.02Q159.35 33.90 159.35 36.85Q159.35 39.65 157.88 41.88Q156.40 44.10 153.90 45.38Q151.40 46.65 148.20 46.65M151.30 27.45Q152.90 26.55 153.85 25.47Q154.80 24.40 154.80 22.60Q154.80 20.45 153.45 19.27Q152.10 18.10 149.90 18.10Q148.90 18.10 148.03 18.32Q147.15 18.55 146.40 18.90Q145.70 20 145.70 21.35Q145.70 23.50 147.43 24.95Q149.15 26.40 151.30 27.45M150.40 41.80Q152.40 41.80 153.95 40.88Q155.50 39.95 155.50 38.05Q155.50 36.65 154.60 35.55Q153.70 34.45 152.15 33.55Q151.20 32.95 150.05 32.45Q148.90 31.95 147.70 31.55Q146.15 32.45 145.20 33.75Q144.25 35.05 144.25 36.75Q144.25 38.45 145.15 39.58Q146.05 40.70 147.47 41.25Q148.90 41.80 150.40 41.80ZM173.35 46.65Q170.35 46.65 168.43 45.17Q166.50 43.70 165.60 41.10Q164.70 38.50 164.60 35.15Q164.50 30.60 165.85 26.67Q167.20 22.75 169.65 19.75Q172.10 16.75 175.20 15.10Q176.65 14.35 178.30 13.88Q179.95 13.40 181.25 13.45Q182.35 13.50 182.75 13.98Q183.15 14.45 183.15 15.35Q183.15 16.20 182.88 17.13Q182.60 18.05 182.13 18.67Q181.65 19.30 181.00 19.30Q180.60 19.30 180.30 19.20Q180.10 19.15 179.85 19.13Q179.60 19.10 179.20 19.10Q175.95 19.10 173.25 21.27Q170.55 23.45 169.40 27.30Q170.85 26.10 172.40 25.57Q173.95 25.05 175.65 25.05Q179.45 25.05 181.68 27.55Q183.90 30.05 183.95 34.50Q184.00 37.80 182.68 40.58Q181.35 43.35 178.95 45Q176.55 46.65 173.35 46.65M174.70 41.45Q177.20 41.45 178.75 39.88Q180.30 38.30 180.25 35.80Q180.20 33.15 178.50 31.67Q176.80 30.20 174.30 30.20Q172.70 30.20 171.28 30.80Q169.85 31.40 168.60 32.50Q168.40 34.80 169.03 36.85Q169.65 38.90 171.10 40.17Q172.55 41.45 174.70 41.45Z"/></g></g></svg>